{"glyphs":{":":{"x_min":0,"x_max":219,"ha":219,"o":"m 37 383 l 182 383 l 182 112 l 37 112 z"},"$":{"x_min":0,"x_max":442,"ha":442,"o":"m 203 370 l 289 370 q 353 370 381 342 q 409 315 409 261 l 409 111 q 409 3 288 0 l 288 -81 l 153 -81 l 153 0 q 35 4 35 111 l 35 193 l 178 193 l 178 130 q 178 105 205 105 l 239 105 q 266 105 266 130 l 266 245 q 266 258 260 264 q 254 269 239 269 l 151 269 q 33 269 33 381 l 33 526 q 33 633 153 636 l 153 718 l 288 718 l 288 636 q 407 633 407 526 l 407 443 l 264 443 l 264 506 q 264 531 237 531 l 203 531 q 176 531 176 506 l 176 394 q 176 381 182 376 q 188 370 203 370 z"},"?":{"x_min":0,"x_max":421,"ha":421,"o":"m 147 636 l 267 636 q 393 636 393 526 l 393 395 q 393 285 267 285 l 265 285 l 259 222 l 140 222 l 127 367 l 224 367 q 239 367 244 372 q 250 378 250 392 l 250 513 q 250 527 244 532 q 239 538 224 538 l 189 538 q 163 538 163 513 l 163 444 l 20 444 l 20 526 q 20 636 147 636 z m 125 0 l 125 148 l 270 148 l 270 0 z"},"<":{"x_min":0,"x_max":490,"ha":490,"o":"m 464 401 l 163 319 l 464 236 l 464 121 l 27 258 l 27 384 l 464 515 z"},"'":{"x_min":0,"x_max":212,"ha":212,"o":"m 39 636 l 173 636 l 173 386 l 39 386 z"},"=":{"x_min":0,"x_max":490,"ha":490,"o":"m 27 163 l 27 271 l 464 271 l 464 163 z m 27 363 l 27 471 l 464 471 l 464 363 z"},"a":{"x_min":0,"x_max":434,"ha":434,"o":"m 255 495 l 392 495 l 392 0 l 253 0 l 253 49 q 238 0 174 0 l 150 0 q 33 0 33 111 l 33 384 q 33 495 150 495 l 174 495 q 241 495 255 439 z m 200 105 l 223 105 q 253 105 253 137 l 253 358 q 253 390 223 390 l 200 390 q 173 390 173 365 l 173 130 q 173 105 200 105 z"},"L":{"x_min":0,"x_max":371,"ha":371,"o":"m 187 105 l 370 105 l 370 0 l 45 0 l 45 636 l 187 636 z"},"3":{"x_min":0,"x_max":431,"ha":431,"o":"m 169 506 l 169 431 l 27 431 l 27 526 q 27 636 153 636 l 264 636 q 391 636 391 526 l 391 417 q 391 343 346 324 q 391 307 391 238 l 391 111 q 391 0 264 0 l 153 0 q 27 0 27 111 l 27 204 l 169 204 l 169 130 q 169 105 196 105 l 223 105 q 250 105 250 130 l 250 248 q 250 262 244 268 q 238 273 223 273 l 145 273 l 145 372 l 223 372 q 238 372 244 378 q 250 383 250 396 l 250 506 q 250 531 223 531 l 196 531 q 169 531 169 506 z"},";":{"x_min":0,"x_max":219,"ha":219,"o":"m 37 346 l 37 495 l 182 495 l 182 346 z m 37 148 l 182 148 l 182 68 l 82 -145 l 37 -145 z"},"J":{"x_min":0,"x_max":410,"ha":410,"o":"m 12 238 l 155 238 l 155 130 q 155 105 182 105 l 199 105 q 226 105 226 130 l 226 636 l 369 636 l 369 111 q 369 0 243 0 l 138 0 q 12 0 12 111 z"},"V":{"x_min":0,"x_max":469,"ha":469,"o":"m 314 636 l 462 636 l 322 0 l 147 0 l 6 636 l 155 636 l 234 164 z"},"\"":{"x_min":0,"x_max":380,"ha":380,"o":"m 215 636 l 342 636 l 342 386 l 215 386 z m 39 636 l 165 636 l 165 386 l 39 386 z"},"7":{"x_min":0,"x_max":372,"ha":372,"o":"m 367 636 l 367 556 l 182 0 l 35 0 l 215 524 l 9 524 l 9 636 z"},"S":{"x_min":0,"x_max":442,"ha":442,"o":"m 266 130 l 266 245 q 266 258 260 264 q 254 269 239 269 l 151 269 q 33 269 33 381 l 33 526 q 33 636 159 636 l 281 636 q 407 636 407 526 l 407 443 l 264 443 l 264 506 q 264 531 237 531 l 203 531 q 176 531 176 506 l 176 394 q 176 381 182 376 q 188 370 203 370 l 289 370 q 353 370 381 342 q 409 315 409 261 l 409 111 q 409 0 283 0 l 162 0 q 35 0 35 111 l 35 193 l 178 193 l 178 130 q 178 105 205 105 l 239 105 q 266 105 266 130 z"},"}":{"x_min":0,"x_max":310,"ha":310,"o":"m 70 439 l 70 665 q 70 690 42 690 l 9 690 l 9 788 l 89 788 q 213 788 213 671 l 213 456 q 213 407 230 386 q 247 364 286 364 l 297 364 l 297 266 l 286 266 q 247 266 230 244 q 213 222 213 175 l 213 -42 q 213 -159 89 -159 l 9 -159 l 9 -61 l 42 -61 q 70 -61 70 -36 l 70 200 q 70 252 90 282 q 111 312 147 315 q 70 330 70 439 z"},"Z":{"x_min":0,"x_max":407,"ha":407,"o":"m 391 636 l 391 531 l 164 105 l 385 105 l 385 0 l 16 0 l 16 105 l 243 531 l 28 531 l 28 636 z"},"x":{"x_min":0,"x_max":407,"ha":407,"o":"m 283 255 l 406 0 l 263 0 l 202 156 l 144 0 l 6 0 l 122 253 l 5 495 l 151 495 l 202 348 l 252 495 l 393 495 z"},")":{"x_min":0,"x_max":309,"ha":309,"o":"m 266 180 q 266 10 200 -80 q 133 -170 9 -170 l -2 -170 l -2 -51 l 9 -51 q 123 -46 123 178 l 123 453 q 123 678 9 681 l -2 682 l -2 800 l 9 800 q 134 800 200 710 q 266 620 266 451 z"},"&":{"x_min":0,"x_max":563,"ha":563,"o":"m 403 0 l 160 0 q 33 0 33 111 l 33 186 q 33 230 50 254 q 67 278 136 319 q 97 362 80 389 q 64 416 64 447 l 64 526 q 64 636 191 636 l 300 636 q 425 636 425 526 l 425 448 q 425 395 404 366 q 382 337 331 305 l 312 293 l 422 170 l 422 243 l 535 243 l 535 111 q 535 81 524 56 l 606 -36 l 462 -36 l 428 1 q 420 0 403 0 z m 204 515 l 204 440 q 204 412 234 379 q 266 399 278 412 q 289 424 289 446 l 289 515 q 289 529 283 534 q 277 540 262 540 l 230 540 q 216 540 210 534 q 204 529 204 515 z m 196 98 l 339 98 l 214 235 l 194 223 q 169 208 169 178 l 169 123 q 169 98 196 98 z"},"_":{"x_min":0,"x_max":474,"ha":474,"o":"m 0 -139 l 0 -41 l 474 -41 l 474 -139 z"},"v":{"x_min":0,"x_max":405,"ha":405,"o":"m 141 495 l 203 140 l 265 495 l 404 495 l 290 0 l 115 0 l 2 495 z"},"O":{"x_min":0,"x_max":469,"ha":469,"o":"m 168 636 l 302 636 q 428 636 428 526 l 428 111 q 428 0 302 0 l 168 0 q 41 0 41 111 l 41 526 q 41 636 168 636 z m 285 130 l 285 506 q 285 531 259 531 l 211 531 q 184 531 184 506 l 184 130 q 184 105 211 105 l 259 105 q 285 105 285 130 z"},"(":{"x_min":0,"x_max":309,"ha":309,"o":"m 43 451 q 43 620 109 710 q 175 800 299 800 l 310 800 l 310 682 l 300 681 q 245 679 215 622 q 185 565 185 453 l 185 178 q 185 -46 300 -51 l 310 -51 l 310 -170 l 299 -170 q 175 -170 109 -80 q 43 11 43 180 z"},"C":{"x_min":0,"x_max":450,"ha":450,"o":"m 421 413 l 277 413 l 277 513 q 277 538 251 538 l 210 538 q 183 538 183 513 l 183 123 q 183 109 189 104 q 195 98 210 98 l 251 98 q 265 98 271 104 q 277 109 277 123 l 277 220 l 421 220 l 421 110 q 421 0 294 0 l 166 0 q 40 0 40 110 l 40 526 q 40 636 166 636 l 294 636 q 421 636 421 526 z"},"W":{"x_min":0,"x_max":750,"ha":750,"o":"m 598 636 l 740 636 l 617 0 l 446 0 l 375 416 l 304 0 l 133 0 l 10 636 l 158 636 l 218 161 l 302 636 l 447 636 l 531 161 z"},"A":{"x_min":0,"x_max":483,"ha":483,"o":"m 335 0 l 313 115 l 168 115 l 146 0 l 5 0 l 149 636 l 331 636 l 479 0 z m 188 219 l 292 219 l 240 488 z"},"f":{"x_min":0,"x_max":279,"ha":279,"o":"m 274 566 l 225 566 q 198 566 198 541 l 198 495 l 274 495 l 274 390 l 198 390 l 198 0 l 59 0 l 59 390 l 9 390 l 9 495 l 59 495 l 59 559 q 59 669 185 669 l 274 669 z"},"Q":{"x_min":0,"x_max":469,"ha":469,"o":"m 168 0 q 41 0 41 111 l 41 526 q 41 636 168 636 l 302 636 q 428 636 428 526 l 428 111 q 428 45 385 18 l 468 -77 l 309 -77 l 243 0 z m 184 506 l 184 130 q 184 105 211 105 l 259 105 q 285 105 285 130 l 285 506 q 285 531 259 531 l 211 531 q 184 531 184 506 z"},"w":{"x_min":0,"x_max":627,"ha":627,"o":"m 493 495 l 622 495 l 522 0 l 372 0 l 312 323 l 251 0 l 102 0 l 5 495 l 135 495 l 183 143 l 247 495 l 380 495 l 439 145 z"},"-":{"x_min":0,"x_max":332,"ha":332,"o":"m 31 250 l 31 348 l 301 348 l 301 250 z"},"E":{"x_min":0,"x_max":409,"ha":409,"o":"m 188 105 l 392 105 l 392 0 l 45 0 l 45 636 l 384 636 l 384 531 l 188 531 l 188 376 l 355 376 l 355 271 l 188 271 z"},"s":{"x_min":0,"x_max":401,"ha":401,"o":"m 237 119 l 237 175 q 237 188 231 194 q 225 199 210 199 l 153 199 q 28 199 28 309 l 28 384 q 28 495 155 495 l 240 495 q 367 495 367 384 l 367 340 l 233 340 l 233 376 q 233 389 227 394 q 221 400 206 400 l 191 400 q 176 400 170 394 q 164 389 164 376 l 164 316 q 164 303 170 298 q 176 292 191 292 l 248 292 q 373 292 373 183 l 373 111 q 373 0 246 0 l 157 0 q 31 0 31 111 l 31 154 l 167 154 l 167 119 q 167 94 193 94 l 210 94 q 237 94 237 119 z"},">":{"x_min":0,"x_max":490,"ha":490,"o":"m 327 319 l 27 401 l 27 515 l 464 384 l 464 258 l 27 121 l 27 236 z"},"l":{"x_min":0,"x_max":223,"ha":223,"o":"m 181 0 l 42 0 l 42 669 l 181 669 z"},"8":{"x_min":0,"x_max":457,"ha":457,"o":"m 417 526 l 417 416 q 417 342 372 323 q 417 305 417 236 l 417 111 q 417 0 291 0 l 166 0 q 40 0 40 111 l 40 236 q 40 305 84 323 q 40 342 40 416 l 40 526 q 40 636 166 636 l 291 636 q 417 636 417 526 z m 280 129 l 280 251 q 280 265 274 270 q 268 276 253 276 l 204 276 q 189 276 183 270 q 177 265 177 251 l 177 129 q 177 115 183 110 q 189 104 204 104 l 253 104 q 268 104 274 110 q 280 115 280 129 z m 280 392 l 280 508 q 280 521 274 526 q 268 532 253 532 l 204 532 q 189 532 183 526 q 177 521 177 508 l 177 392 q 177 379 183 374 q 189 368 204 368 l 253 368 q 268 368 274 374 q 280 379 280 392 z"},"\\":{"x_min":0,"x_max":403,"ha":403,"o":"m -1 701 l 121 701 l 415 -83 l 293 -83 z"},"e":{"x_min":0,"x_max":429,"ha":429,"o":"m 161 495 l 274 495 q 401 495 401 384 l 401 209 l 168 209 l 168 124 q 168 111 174 106 q 180 100 195 100 l 240 100 q 254 100 260 106 q 266 112 266 126 l 266 159 l 400 159 l 400 111 q 400 0 273 0 l 161 0 q 35 0 35 111 l 35 384 q 35 495 161 495 z m 168 291 l 267 291 l 267 371 q 267 384 261 390 q 255 395 241 395 l 195 395 q 180 395 174 390 q 168 384 168 371 z"},"b":{"x_min":0,"x_max":434,"ha":434,"o":"m 259 495 l 284 495 q 401 495 401 385 l 401 111 q 401 0 284 0 l 259 0 q 193 0 179 56 l 179 0 l 42 0 l 42 669 l 181 669 l 181 446 q 196 495 259 495 z m 261 130 l 261 365 q 261 379 255 384 q 249 390 234 390 l 210 390 q 181 390 181 358 l 181 137 q 181 105 210 105 l 234 105 q 261 105 261 130 z"},"%":{"x_min":0,"x_max":801,"ha":801,"o":"m 515 636 l 622 636 l 286 0 l 181 0 z m 659 108 l 659 258 q 659 280 636 280 l 618 280 q 605 280 600 275 q 596 270 596 258 l 596 108 q 596 96 600 92 q 605 87 618 87 l 636 87 q 649 87 654 92 q 659 96 659 108 z m 205 378 l 205 528 q 205 540 200 545 q 196 550 183 550 l 164 550 q 151 550 146 545 q 142 540 142 528 l 142 378 q 142 366 146 362 q 151 357 164 357 l 183 357 q 196 357 200 362 q 205 366 205 378 z m 774 275 l 774 91 q 774 0 671 0 l 583 0 q 480 0 480 91 l 480 275 q 480 366 583 366 l 671 366 q 774 366 774 275 z m 320 545 l 320 361 q 320 270 218 270 l 129 270 q 27 270 27 361 l 27 545 q 27 636 129 636 l 218 636 q 320 636 320 545 z"},"m":{"x_min":0,"x_max":657,"ha":657,"o":"m 479 495 l 503 495 q 620 495 620 384 l 620 0 l 481 0 l 481 365 q 481 390 454 390 l 430 390 q 401 390 401 358 l 401 0 l 261 0 l 261 365 q 261 390 234 390 l 210 390 q 181 390 181 358 l 181 0 l 42 0 l 42 495 l 179 495 l 179 439 q 193 495 259 495 l 284 495 q 366 495 391 439 q 398 465 422 480 q 445 495 479 495 z"},"#":{"x_min":0,"x_max":609,"ha":609,"o":"m 579 392 l 493 392 l 463 244 l 537 244 l 537 149 l 443 149 l 412 0 l 291 0 l 322 149 l 217 149 l 186 0 l 65 0 l 96 149 l 30 149 l 30 244 l 116 244 l 146 392 l 72 392 l 72 486 l 166 486 l 197 635 l 318 635 l 287 486 l 392 486 l 423 635 l 544 635 l 513 486 l 579 486 z m 342 244 l 372 392 l 267 392 l 237 244 z"},",":{"x_min":0,"x_max":219,"ha":219,"o":"m 37 148 l 182 148 l 182 68 l 82 -145 l 37 -145 z"},"n":{"x_min":0,"x_max":439,"ha":439,"o":"m 259 495 l 284 495 q 401 495 401 384 l 401 0 l 261 0 l 261 365 q 261 390 234 390 l 210 390 q 181 390 181 358 l 181 0 l 42 0 l 42 495 l 179 495 l 179 439 q 193 495 259 495 z"},"h":{"x_min":0,"x_max":439,"ha":439,"o":"m 259 495 l 284 495 q 401 495 401 384 l 401 0 l 261 0 l 261 365 q 261 390 234 390 l 210 390 q 181 390 181 358 l 181 0 l 42 0 l 42 669 l 181 669 l 181 446 q 196 495 259 495 z"},"z":{"x_min":0,"x_max":354,"ha":354,"o":"m 342 101 l 342 0 l 12 0 l 12 101 l 187 394 l 24 394 l 24 495 l 335 495 l 335 394 l 158 101 z"},"B":{"x_min":0,"x_max":476,"ha":476,"o":"m 295 394 l 295 513 q 295 538 268 538 l 186 538 l 186 369 l 268 369 q 295 369 295 394 z m 295 123 l 295 247 q 295 260 289 266 q 283 271 268 271 l 186 271 l 186 98 l 268 98 q 295 98 295 123 z m 45 636 l 309 636 q 436 636 436 526 l 436 414 q 436 340 391 321 q 436 304 436 235 l 436 111 q 436 0 309 0 l 45 0 z"},"K":{"x_min":0,"x_max":475,"ha":475,"o":"m 467 636 l 339 322 l 467 0 l 313 0 l 190 322 l 313 636 z m 45 0 l 45 636 l 187 636 l 187 0 z"},"R":{"x_min":0,"x_max":469,"ha":469,"o":"m 187 238 l 187 0 l 45 0 l 45 636 l 307 636 q 433 636 433 526 l 433 348 q 433 260 353 242 l 465 0 l 312 0 l 212 238 z m 187 531 l 187 339 l 264 339 q 278 339 284 344 q 290 350 290 363 l 290 506 q 290 531 264 531 z"},"T":{"x_min":0,"x_max":386,"ha":386,"o":"m 381 636 l 381 531 l 264 531 l 264 0 l 121 0 l 121 531 l 5 531 l 5 636 z"},"P":{"x_min":0,"x_max":456,"ha":456,"o":"m 45 636 l 307 636 q 433 636 433 526 l 433 333 q 433 222 307 222 l 187 222 l 187 0 l 45 0 z m 290 352 l 290 506 q 290 531 264 531 l 187 531 l 187 327 l 264 327 q 290 327 290 352 z"},"|":{"x_min":0,"x_max":240,"ha":240,"o":"m 52 799 l 181 799 l 181 -165 l 52 -165 z"},"t":{"x_min":0,"x_max":271,"ha":271,"o":"m 261 390 l 196 390 l 196 131 q 196 107 223 107 l 261 107 l 261 0 l 183 0 q 57 0 57 111 l 57 390 l 5 390 l 5 495 l 57 495 l 57 587 l 196 587 l 196 495 l 261 495 z"},"M":{"x_min":0,"x_max":612,"ha":612,"o":"m 171 0 l 45 0 l 45 636 l 201 636 l 306 276 l 411 636 l 567 636 l 567 0 l 441 0 l 441 427 l 359 138 l 253 138 l 171 426 z"},"g":{"x_min":0,"x_max":434,"ha":434,"o":"m 255 495 l 392 495 l 392 -22 q 392 -133 266 -133 l 54 -133 l 54 -31 l 226 -31 q 253 -31 253 -6 l 253 70 q 238 21 174 21 l 150 21 q 33 21 33 132 l 33 384 q 33 495 150 495 l 174 495 q 241 495 255 439 z m 200 126 l 223 126 q 253 126 253 158 l 253 358 q 253 390 223 390 l 200 390 q 173 390 173 365 l 173 151 q 173 126 200 126 z"},"j":{"x_min":0,"x_max":223,"ha":223,"o":"m 39 561 l 39 669 l 184 669 l 184 561 z m 42 -6 l 42 495 l 181 495 l 181 -22 q 181 -133 55 -133 l -13 -133 l -13 -31 l 15 -31 q 42 -31 42 -6 z"},"i":{"x_min":0,"x_max":223,"ha":223,"o":"m 39 561 l 39 669 l 184 669 l 184 561 z m 181 0 l 42 0 l 42 495 l 181 495 z"},"y":{"x_min":0,"x_max":418,"ha":418,"o":"m 137 -133 l 62 -133 l 62 -29 l 124 -29 q 147 -29 160 -22 q 174 -14 181 8 l 186 28 l 127 28 l 3 495 l 148 495 l 214 151 l 274 495 l 415 495 l 298 -12 q 281 -72 244 -102 q 206 -133 137 -133 z"},"@":{"x_min":0,"x_max":799,"ha":799,"o":"m 365 320 l 365 195 q 365 182 370 177 q 375 172 389 172 l 416 172 q 443 172 443 201 l 443 313 q 443 343 416 343 l 389 343 q 376 343 370 338 q 365 333 365 320 z m 242 331 q 242 434 350 434 l 370 434 q 431 434 445 383 l 445 434 l 560 434 l 560 171 l 604 171 q 619 171 625 176 q 631 182 631 196 l 631 478 q 631 503 604 503 l 206 503 q 179 503 179 478 l 179 32 q 179 19 185 14 q 191 8 206 8 l 561 8 l 561 -91 l 170 -91 q 54 -91 54 19 l 54 491 q 54 602 170 602 l 638 602 q 753 602 753 491 l 753 191 q 753 80 637 80 l 448 80 l 448 138 q 437 80 370 80 l 350 80 q 242 80 242 183 z"},".":{"x_min":0,"x_max":219,"ha":219,"o":"m 37 0 l 37 148 l 182 148 l 182 0 z"},"p":{"x_min":0,"x_max":434,"ha":434,"o":"m 259 495 l 284 495 q 401 495 401 384 l 401 111 q 401 0 284 0 l 259 0 q 196 0 181 49 l 181 -133 l 42 -133 l 42 495 l 179 495 l 179 439 q 193 495 259 495 z m 261 130 l 261 365 q 261 390 234 390 l 210 390 q 181 390 181 358 l 181 137 q 181 105 210 105 l 234 105 q 261 105 261 130 z"},"X":{"x_min":0,"x_max":465,"ha":465,"o":"m 309 324 l 463 0 l 303 0 l 229 202 l 154 0 l 2 0 l 149 324 l 7 636 l 168 636 l 229 449 l 290 636 l 444 636 z"},"*":{"x_min":0,"x_max":364,"ha":364,"o":"m 129 613 l 129 636 l 235 636 l 235 612 q 235 576 226 540 q 255 561 315 579 l 347 478 q 284 459 253 457 q 280 437 304 404 l 318 385 l 232 322 l 217 342 q 196 370 183 406 q 171 374 133 322 l 47 384 q 86 436 112 457 q 73 459 39 471 l 17 478 l 50 578 q 108 560 139 540 q 129 572 129 613 z"},"Y":{"x_min":0,"x_max":459,"ha":459,"o":"m 305 0 l 162 0 l 162 206 l 2 636 l 148 636 l 233 337 l 312 636 l 458 636 l 305 205 z"},"c":{"x_min":0,"x_max":413,"ha":413,"o":"m 389 317 l 253 317 l 253 365 q 253 390 226 390 l 200 390 q 173 390 173 365 l 173 130 q 173 105 200 105 l 226 105 q 253 105 253 130 l 253 178 l 389 178 l 389 111 q 389 0 262 0 l 160 0 q 33 0 33 111 l 33 384 q 33 495 160 495 l 262 495 q 389 495 389 384 z"},"!":{"x_min":0,"x_max":263,"ha":263,"o":"m 59 0 l 59 148 l 204 148 l 204 0 z m 50 636 l 213 636 l 189 222 l 75 222 z"},"/":{"x_min":0,"x_max":403,"ha":403,"o":"m 283 701 l 404 701 l 110 -83 l -12 -83 z"},"[":{"x_min":0,"x_max":315,"ha":315,"o":"m 285 683 l 190 683 l 190 -55 l 285 -55 l 285 -160 l 47 -160 l 47 788 l 285 788 z"},"6":{"x_min":0,"x_max":451,"ha":451,"o":"m 181 375 l 290 375 q 417 375 417 265 l 417 111 q 417 0 290 0 l 168 0 q 41 0 41 111 l 41 526 q 41 636 168 636 l 283 636 q 410 636 410 526 l 410 440 l 270 440 l 270 506 q 270 531 243 531 l 207 531 q 181 531 181 506 z m 277 130 l 277 249 q 277 274 250 274 l 181 274 l 181 130 q 181 105 207 105 l 250 105 q 277 105 277 130 z"},"r":{"x_min":0,"x_max":298,"ha":298,"o":"m 276 498 l 293 498 l 293 377 l 244 377 q 181 377 181 307 l 181 0 l 42 0 l 42 495 l 179 495 l 179 424 q 187 457 212 478 q 237 498 276 498 z"},"2":{"x_min":0,"x_max":415,"ha":415,"o":"m 167 506 l 167 422 l 24 422 l 24 526 q 24 636 150 636 l 258 636 q 386 636 386 526 l 386 445 q 386 399 372 366 q 359 332 329 292 l 201 105 l 388 105 l 388 0 l 27 0 l 27 97 l 203 333 q 228 364 236 388 q 245 412 245 447 l 245 506 q 245 531 218 531 l 193 531 q 167 531 167 506 z"},"{":{"x_min":0,"x_max":310,"ha":310,"o":"m 240 665 l 240 439 q 240 331 162 315 q 198 312 219 282 q 240 252 240 200 l 240 -36 q 240 -61 267 -61 l 300 -61 l 300 -159 l 220 -159 q 97 -159 97 -42 l 97 175 q 97 222 80 244 q 62 266 23 266 l 13 266 l 13 364 l 23 364 q 62 364 80 386 q 97 408 97 456 l 97 671 q 97 788 220 788 l 300 788 l 300 690 l 267 690 q 240 690 240 665 z"},"9":{"x_min":0,"x_max":450,"ha":450,"o":"m 160 636 l 282 636 q 409 636 409 526 l 409 111 q 409 0 282 0 l 166 0 q 39 0 39 111 l 39 193 l 178 193 l 178 130 q 178 105 205 105 l 243 105 q 269 105 269 130 l 269 251 l 160 251 q 33 251 33 361 l 33 526 q 33 636 160 636 z m 200 349 l 269 349 l 269 506 q 269 531 243 531 l 200 531 q 173 531 173 506 l 173 374 q 173 360 179 354 q 185 349 200 349 z"}," ":{"x_min":0,"x_max":179,"ha":179,"o":""},"I":{"x_min":0,"x_max":238,"ha":238,"o":"m 48 636 l 190 636 l 190 0 l 48 0 z"},"H":{"x_min":0,"x_max":500,"ha":500,"o":"m 314 636 l 455 636 l 455 0 l 314 0 l 314 262 l 186 262 l 186 0 l 45 0 l 45 636 l 186 636 l 186 367 l 314 367 z"},"4":{"x_min":0,"x_max":452,"ha":452,"o":"m 452 225 l 452 119 l 389 119 l 389 0 l 254 0 l 254 119 l 9 119 l 9 243 l 226 636 l 370 636 l 137 225 l 254 225 l 254 350 l 389 350 l 389 225 z"},"~":{"x_min":0,"x_max":645,"ha":645,"o":"m 404 208 q 362 208 313 247 q 264 286 243 286 q 222 286 216 278 q 211 271 211 254 l 211 208 l 83 208 l 83 285 q 83 333 106 356 q 130 378 184 378 l 239 378 q 268 378 294 366 q 320 354 336 339 q 352 324 370 312 q 389 300 405 300 q 421 300 426 308 q 432 315 432 333 l 432 378 l 560 378 l 560 300 q 560 253 536 230 q 513 208 459 208 z"},"D":{"x_min":0,"x_max":485,"ha":485,"o":"m 52 636 l 317 636 q 444 636 444 526 l 444 111 q 444 0 317 0 l 52 0 z m 301 123 l 301 513 q 301 538 274 538 l 195 538 l 195 98 l 274 98 q 301 98 301 123 z"},"^":{"x_min":0,"x_max":626,"ha":626,"o":"m 204 670 l 391 670 l 517 294 l 372 294 l 297 549 l 223 294 l 78 294 z"},"0":{"x_min":0,"x_max":459,"ha":459,"o":"m 275 130 l 275 506 q 275 531 248 531 l 211 531 q 184 531 184 506 l 184 130 q 184 105 211 105 l 248 105 q 275 105 275 130 z m 418 526 l 418 111 q 418 0 292 0 l 168 0 q 41 0 41 111 l 41 526 q 41 636 168 636 l 292 636 q 418 636 418 526 z"},"F":{"x_min":0,"x_max":399,"ha":399,"o":"m 387 531 l 188 531 l 188 356 l 355 356 l 355 257 l 188 257 l 188 0 l 45 0 l 45 636 l 387 636 z"},"`":{"x_min":0,"x_max":470,"ha":470,"o":"m 247 670 l 338 527 l 226 527 l 104 670 z"},"k":{"x_min":0,"x_max":430,"ha":430,"o":"m 432 495 l 323 254 l 432 0 l 286 0 l 182 254 l 287 495 z m 42 0 l 42 669 l 181 669 l 181 0 z"},"u":{"x_min":0,"x_max":439,"ha":439,"o":"m 258 495 l 397 495 l 397 0 l 260 0 l 260 56 q 246 0 179 0 l 155 0 q 38 0 38 111 l 38 495 l 178 495 l 178 130 q 178 105 205 105 l 228 105 q 258 105 258 137 z"},"]":{"x_min":0,"x_max":315,"ha":315,"o":"m 261 788 l 261 -160 l 23 -160 l 23 -55 l 118 -55 l 118 683 l 23 683 l 23 788 z"},"U":{"x_min":0,"x_max":475,"ha":475,"o":"m 288 636 l 431 636 l 431 111 q 431 0 304 0 l 170 0 q 44 0 44 111 l 44 636 l 187 636 l 187 130 q 187 105 213 105 l 261 105 q 288 105 288 130 z"},"o":{"x_min":0,"x_max":439,"ha":439,"o":"m 160 495 l 279 495 q 345 495 374 466 q 402 438 402 384 l 402 111 q 402 57 374 28 q 345 0 279 0 l 160 0 q 94 0 66 28 q 37 57 37 111 l 37 384 q 37 438 66 466 q 94 495 160 495 z m 265 125 l 265 370 q 265 395 238 395 l 201 395 q 174 395 174 370 l 174 125 q 174 100 201 100 l 238 100 q 265 100 265 125 z"},"N":{"x_min":0,"x_max":486,"ha":486,"o":"m 311 636 l 442 636 l 442 0 l 314 0 l 175 381 l 175 0 l 45 0 l 45 636 l 174 636 l 311 256 z"},"+":{"x_min":0,"x_max":473,"ha":473,"o":"m 455 370 l 455 264 l 304 264 l 304 111 l 169 111 l 169 264 l 18 264 l 18 370 l 169 370 l 169 523 l 304 523 l 304 370 z"},"G":{"x_min":0,"x_max":456,"ha":456,"o":"m 421 430 l 278 430 l 278 513 q 278 538 251 538 l 210 538 q 183 538 183 513 l 183 123 q 183 109 189 104 q 195 98 210 98 l 251 98 q 266 98 272 104 q 278 109 278 123 l 278 247 l 228 247 l 228 342 l 421 342 l 421 110 q 421 0 295 0 l 166 0 q 40 0 40 110 l 40 526 q 40 636 166 636 l 295 636 q 421 636 421 526 z"},"q":{"x_min":0,"x_max":434,"ha":434,"o":"m 255 495 l 392 495 l 392 -133 l 253 -133 l 253 49 q 238 0 174 0 l 150 0 q 33 0 33 111 l 33 384 q 33 495 150 495 l 174 495 q 241 495 255 439 z m 200 105 l 223 105 q 253 105 253 137 l 253 358 q 253 390 223 390 l 200 390 q 173 390 173 365 l 173 130 q 173 105 200 105 z"},"d":{"x_min":0,"x_max":434,"ha":434,"o":"m 253 669 l 392 669 l 392 0 l 255 0 l 255 56 q 241 0 174 0 l 150 0 q 33 0 33 111 l 33 385 q 33 495 150 495 l 174 495 q 238 495 253 446 z m 200 105 l 223 105 q 253 105 253 137 l 253 358 q 253 390 223 390 l 200 390 q 185 390 179 384 q 173 379 173 365 l 173 130 q 173 105 200 105 z"},"1":{"x_min":0,"x_max":289,"ha":289,"o":"m 245 636 l 245 0 l 102 0 l 102 531 l 19 531 l 19 636 z"},"5":{"x_min":0,"x_max":445,"ha":445,"o":"m 187 411 l 286 411 q 413 411 413 301 l 413 111 q 413 0 286 0 l 167 0 q 40 0 40 111 l 40 215 l 183 215 l 183 130 q 183 105 210 105 l 245 105 q 272 105 272 130 l 272 281 q 272 306 245 306 l 46 306 l 46 636 l 406 636 l 406 531 l 187 531 z"}}}
